<?xml version="1.0" encoding="UTF-8"?>
<svg version="1.1" xmlns="http://www.w3.org/2000/svg" width="224" height="224">
    <path
        d="M0 0 C73.92 0 147.84 0 224 0 C224 73.92 224 147.84 224 224 C150.08 224 76.16 224 0 224 C0 150.08 0 76.16 0 0 Z "
        fill="#FAFBFB" transform="translate(0,0)" />
    <path
        d="M0 0 C1.31225809 3.93677426 0.3393954 5.7794262 -0.9375 9.6875 C-1.31777344 10.86699219 -1.69804688 12.04648437 -2.08984375 13.26171875 C-2.39019531 14.16535156 -2.69054687 15.06898437 -3 16 C-2.236875 16.28875 -1.47375 16.5775 -0.6875 16.875 C2 18 2 18 5 20 C5.17963008 21.94908955 5.35884849 23.89821926 5.53466797 25.84765625 C6.3696695 29.70986688 8.92737366 32.17735531 11.5625 35 C12.08263672 35.58394531 12.60277344 36.16789062 13.13867188 36.76953125 C14.4107185 38.19328986 15.70331676 39.59864217 17 41 C15.71455342 44.56305823 14.20155344 47.32844233 11.875 50.3125 C11.06675781 51.35857422 11.06675781 51.35857422 10.2421875 52.42578125 C9.83226562 52.94527344 9.42234375 53.46476562 9 54 C5.87590294 53.62716537 2.93647275 53.15515656 0 52 C-1.375 49 -1.375 49 -2 46 C-4.95736214 43.74929669 -4.95736214 43.74929669 -8.875 43.25 C-13.51749736 42.14057967 -15.43274063 40.07741194 -18 36 C-18.91938985 33.32366097 -19.47004382 30.79431439 -20 28 C-21.70738798 34.03832336 -21.91329422 39.7928723 -19.5 45.625 C-14.58286634 52.95786831 -7.42706915 58.35422148 -0.625 63.82421875 C10.66575289 73.18277434 10.66575289 73.18277434 11.4375 79.6875 C11.341248 84.88510778 8.64207949 89.35792051 5 93 C2.04294679 93.08868299 -0.89065056 93.11520296 -3.84765625 93.09765625 C-5.17729652 93.09553383 -5.17729652 93.09553383 -6.53379822 93.09336853 C-9.37673254 93.08775215 -12.21958931 93.07519691 -15.0625 93.0625 C-16.98502491 93.05748711 -18.90755104 93.05292384 -20.83007812 93.04882812 C-25.55341549 93.03777741 -30.27669458 93.02050183 -35 93 C-35.70724487 89.98524475 -35.70724487 89.98524475 -36.41448975 86.9704895 C-37.18245686 84.38595553 -38.42487963 82.83988184 -40.25 80.875 C-49.15228297 70.14756278 -52.16806287 56.70417429 -51 43 C-48.40522438 30.29301309 -42.1749274 20.08700877 -32 12 C-26.15688358 8.35057954 -19.8614061 5.03179039 -13 4 C-13.66 4.928125 -14.32 5.85625 -15 6.8125 C-17.26574554 9.79636556 -17.26574554 9.79636556 -17 13 C-16.03900391 12.09507813 -16.03900391 12.09507813 -15.05859375 11.171875 C-10.2725339 6.74958423 -5.83769647 2.91884824 0 0 Z "
        fill="#09120E" transform="translate(91,41)" />
    <path
        d="M0 0 C15.07454345 2.96548396 28.37040325 8.45428334 37.625 21.24609375 C44.63048346 32.19216165 47.62495383 43.17527913 45.4921875 56.0703125 C43.268435 66.06441858 39.26761852 74.06994883 32.453125 81.69921875 C30.54512252 84.72022268 30.42816908 87.48804273 30 91 C24.25272727 91.19803736 18.50744577 91.34305146 12.75756836 91.43945312 C10.80278937 91.4796409 8.84825023 91.53420412 6.89428711 91.60351562 C4.08126751 91.7007876 1.27142774 91.74596862 -1.54296875 91.78125 C-2.41398727 91.82254028 -3.2850058 91.86383057 -4.18241882 91.90637207 C-6.69172581 91.90822008 -8.62398404 91.81417401 -11 91 C-14.5498858 87.43850627 -16.1841986 83.45062911 -16.75 78.5 C-16.36726835 72.75902519 -13.04515452 69.76521303 -9 66 C-8.13117188 65.18273437 -7.26234375 64.36546875 -6.3671875 63.5234375 C-2.173241 59.65659546 2.10898739 55.90226828 6.4375 52.1875 C10.22757695 48.88671577 13.38241162 45.85276515 15 41 C15.09203743 39.48138245 15.13001284 37.95889574 15.125 36.4375 C15.12757813 35.65246094 15.13015625 34.86742187 15.1328125 34.05859375 C15.12976366 31.93561023 15.12976366 31.93561023 14 30 C13.75765625 30.54269531 13.5153125 31.08539063 13.265625 31.64453125 C9.7320893 39.18727091 9.7320893 39.18727091 6 41 C3.67284 41.37400786 1.33882138 41.70764733 -1 42 C-3.33588323 42.95584438 -3.33588323 42.95584438 -5 44 C-5 45.98 -5 47.96 -5 50 C-8.3 50.66 -11.6 51.32 -15 52 C-16.20571536 50.45151269 -17.38902174 48.88555794 -18.5625 47.3125 C-19.22378906 46.44238281 -19.88507813 45.57226562 -20.56640625 44.67578125 C-22 42 -22 42 -21.99609375 39.50390625 C-20.29869079 35.23710115 -17.08919241 32.27199293 -14.03125 28.9140625 C-11.66378782 25.51766483 -11.38426985 23.07131473 -11 19 C-9.5625 17.0625 -9.5625 17.0625 -8 16 C-7.34 16 -6.68 16 -6 16 C-6.639375 15.319375 -7.27875 14.63875 -7.9375 13.9375 C-10.35650334 10.49225282 -10.76846116 8.16769908 -11 4 C-10.67 3.01 -10.34 2.02 -10 1 C-6.22047244 2.51181102 -6.22047244 2.51181102 -5.125 4.9375 C-3.34762401 8.19602265 -1.48437817 8.70074034 2 10 C4.03795302 10.2974911 6.0803514 10.56518322 8.125 10.8125 C17.3915318 12.07419026 24.87496219 16.03665314 32 22 C25.20059146 12.55637702 15.64322921 8.94999171 4.49609375 6.640625 C2 6 2 6 -1 4 C-0.67 2.68 -0.34 1.36 0 0 Z "
        fill="#0A120E" transform="translate(141,43)" />
    <path
        d="M0 0 C1.70840281 1.63412443 2.93453047 2.86906094 4 5 C4.66 4.34 5.32 3.68 6 3 C8.24658203 2.77294922 8.24658203 2.77294922 11.0078125 2.8046875 C11.99394531 2.81113281 12.98007813 2.81757813 13.99609375 2.82421875 C15.02863281 2.84097656 16.06117188 2.85773438 17.125 2.875 C18.16527344 2.88402344 19.20554687 2.89304688 20.27734375 2.90234375 C22.85179092 2.92596253 25.42578212 2.95889851 28 3 C28 4.32 28 5.64 28 7 C28.99 7.495 28.99 7.495 30 8 C28.84371094 8.07347656 28.84371094 8.07347656 27.6640625 8.1484375 C26.15972656 8.26058594 26.15972656 8.26058594 24.625 8.375 C23.62726563 8.44460937 22.62953125 8.51421875 21.6015625 8.5859375 C18.84491121 8.76363964 18.84491121 8.76363964 17 11 C17.495 13.475 17.495 13.475 18 16 C14.04 16 10.08 16 6 16 C5.505 13.525 5.505 13.525 5 11 C3.02 11.66 1.04 12.32 -1 13 C-1.33 15.97 -1.66 18.94 -2 22 C-1.01 22.33 -0.02 22.66 1 23 C1.268125 23.78375 1.53625 24.5675 1.8125 25.375 C3.42411668 28.93752109 5.4905318 29.50660928 9 31 C10 32 10 32 10.1875 34.75 C10.00187851 37.96743924 9.36114502 40.10756683 8 43 C8.804375 43.268125 9.60875 43.53625 10.4375 43.8125 C11.283125 44.204375 12.12875 44.59625 13 45 C13.33 45.99 13.66 46.98 14 48 C-9.43 48 -32.86 48 -57 48 C-56.67 46.68 -56.34 45.36 -56 44 C-54.68352881 43.30062468 -53.34977849 42.63270867 -52 42 C-51.67 41.01 -51.34 40.02 -51 39 C-51.99 38.67 -52.98 38.34 -54 38 C-54.25 35.1875 -54.25 35.1875 -54 32 C-52.3125 30.3125 -52.3125 30.3125 -50 29 C-49.3503125 28.48179687 -48.700625 27.96359375 -48.03125 27.4296875 C-43.47437162 25.28043816 -39.15467103 25.68239948 -34.1875 25.8125 C-33.20845703 25.82603516 -32.22941406 25.83957031 -31.22070312 25.85351562 C-28.81323375 25.88874688 -26.40690436 25.93800735 -24 26 C-24 25.34 -24 24.68 -24 24 C-24.66 24 -25.32 24 -26 24 C-26 23.34 -26 22.68 -26 22 C-30.95 22 -35.9 22 -41 22 C-41 18.7 -41 15.4 -41 12 C-28.46 12 -15.92 12 -3 12 C-3 10.68 -3 9.36 -3 8 C-15.87 8 -28.74 8 -42 8 C-42.33 6.35 -42.66 4.7 -43 3 C-42 2 -42 2 -38.33813477 1.88647461 C-36.70588336 1.88663384 -35.07362697 1.89233432 -33.44140625 1.90234375 C-32.58191879 1.9037587 -31.72243134 1.90517365 -30.8368988 1.90663147 C-28.07873109 1.91224733 -25.32064332 1.92479629 -22.5625 1.9375 C-20.7050793 1.9425135 -18.84765733 1.94707667 -16.99023438 1.95117188 C-12.3267947 1.96240844 -7.6634117 1.98048028 -3 2 C-2.34 2 -1.68 2 -1 2 C-0.67 1.34 -0.34 0.68 0 0 Z "
        fill="#0A120E" transform="translate(173,136)" />
    <path
        d="M0 0 C12.87 0 25.74 0 39 0 C39 3.3 39 6.6 39 10 C39.99 10.33 40.98 10.66 42 11 C42.268125 11.78375 42.53625 12.5675 42.8125 13.375 C44.42745407 16.94489848 46.49361854 17.46595811 50 19 C50.99 19.99 50.99 19.99 52 21 C51.6875 23.375 51.6875 23.375 51 26 C50.814375 26.763125 50.62875 27.52625 50.4375 28.3125 C50.293125 28.869375 50.14875 29.42625 50 30 C50.825 30.61875 51.65 31.2375 52.5 31.875 C53.325 32.57625 54.15 33.2775 55 34 C55 34.66 55 35.32 55 36 C31.57 36 8.14 36 -16 36 C-16 35.01 -16 34.02 -16 33 C-13.5 31.3125 -13.5 31.3125 -11 30 C-11.49756092 27.24358584 -11.49756092 27.24358584 -13 25 C-13.3125 22.625 -13.3125 22.625 -13 20 C-11.3125 18.375 -11.3125 18.375 -9 17 C-8.29875 16.48050781 -7.5975 15.96101562 -6.875 15.42578125 C-3.12050473 13.56383726 0.22655237 13.67009432 4.3125 13.8125 C5.05306641 13.82603516 5.79363281 13.83957031 6.55664062 13.85351562 C8.37141075 13.88864021 10.18580288 13.94244028 12 14 C12 13.34 12 12.68 12 12 C6.06 11.01 6.06 11.01 0 10 C0 6.7 0 3.4 0 0 Z "
        fill="#0E1613" transform="translate(56,148)" />
    <path
        d="M0 0 C3.77952756 1.51181102 3.77952756 1.51181102 4.875 3.9375 C6.65237599 7.19602265 8.51562183 7.70074034 12 9 C14.03795302 9.2974911 16.0803514 9.56518322 18.125 9.8125 C25.03340946 10.75744336 31.3009351 12.89274288 37 17 C37.828125 19.1953125 37.828125 19.1953125 38 21 C36.35 21.33 34.7 21.66 33 22 C31.88293421 26.46826314 32.29673478 29.47481173 33.50390625 33.87890625 C35.39879762 41.98068587 33.48067765 49.57583992 30 57 C26.79214178 61.76337901 23.10723811 65.99512297 19 70 C18.34 69.67 17.68 69.34 17 69 C17.47050781 68.29875 17.94101563 67.5975 18.42578125 66.875 C22.04054046 61.36679549 24.98626827 56.27810479 27 50 C26.34 51.65 25.68 53.3 25 55 C24.01 54.505 24.01 54.505 23 54 C22.45472656 54.70125 21.90945312 55.4025 21.34765625 56.125 C14.57815678 64.64184036 7.76838873 72.0118866 -2 77 C-0.68206814 71.33289301 1.48709197 69.33562767 6 66 C5.34 65.34 4.68 64.68 4 64 C5.52551386 60.08480837 7.89470844 58.27523049 11.1875 55.75 C19.68641687 49.10654475 19.68641687 49.10654475 25 40 C25.09203743 38.48138245 25.13001284 36.95889574 25.125 35.4375 C25.12757813 34.65246094 25.13015625 33.86742187 25.1328125 33.05859375 C25.12976366 30.93561023 25.12976366 30.93561023 24 29 C23.75765625 29.54269531 23.5153125 30.08539063 23.265625 30.64453125 C19.7320893 38.18727091 19.7320893 38.18727091 16 40 C13.67284 40.37400786 11.33882138 40.70764733 9 41 C6.66411677 41.95584438 6.66411677 41.95584438 5 43 C5 44.98 5 46.96 5 49 C1.7 49.66 -1.6 50.32 -5 51 C-6.20571536 49.45151269 -7.38902174 47.88555794 -8.5625 46.3125 C-9.22378906 45.44238281 -9.88507813 44.57226562 -10.56640625 43.67578125 C-12 41 -12 41 -11.99609375 38.50390625 C-10.29869079 34.23710115 -7.08919241 31.27199293 -4.03125 27.9140625 C-1.66378782 24.51766483 -1.38426985 22.07131473 -1 18 C0.4375 16.0625 0.4375 16.0625 2 15 C2.66 15 3.32 15 4 15 C3.360625 14.319375 2.72125 13.63875 2.0625 12.9375 C-0.35650334 9.49225282 -0.76846116 7.16769908 -1 3 C-0.67 2.01 -0.34 1.02 0 0 Z "
        fill="#0B130F" transform="translate(131,44)" />
    <path
        d="M0 0 C1.31225809 3.93677426 0.3393954 5.7794262 -0.9375 9.6875 C-1.31777344 10.86699219 -1.69804688 12.04648437 -2.08984375 13.26171875 C-2.39019531 14.16535156 -2.69054687 15.06898437 -3 16 C-2.236875 16.28875 -1.47375 16.5775 -0.6875 16.875 C2 18 2 18 5 20 C5.17963008 21.94908955 5.35884849 23.89821926 5.53466797 25.84765625 C6.3696695 29.70986688 8.92737366 32.17735531 11.5625 35 C12.08263672 35.58394531 12.60277344 36.16789062 13.13867188 36.76953125 C14.4107185 38.19328986 15.70331676 39.59864217 17 41 C15.71455342 44.56305823 14.20155344 47.32844233 11.875 50.3125 C11.06675781 51.35857422 11.06675781 51.35857422 10.2421875 52.42578125 C9.83226562 52.94527344 9.42234375 53.46476562 9 54 C5.87590294 53.62716537 2.93647275 53.15515656 0 52 C-1.375 49 -1.375 49 -2 46 C-4.95736214 43.74929669 -4.95736214 43.74929669 -8.875 43.25 C-13.51749736 42.14057967 -15.43274063 40.07741194 -18 36 C-18.91938985 33.32366097 -19.47004382 30.79431439 -20 28 C-21.00109515 31.31070838 -21.10356134 34.30084769 -21.0625 37.75 C-21.05347656 38.73484375 -21.04445313 39.7196875 -21.03515625 40.734375 C-21.02355469 41.48203125 -21.01195313 42.2296875 -21 43 C-24 44 -24 44 -27 44 C-27.78259231 53.19545963 -23.36649808 59.86187027 -18.171875 67.15234375 C-17 69 -17 69 -17 71 C-23.57035323 68.23353548 -27.52287538 61.58775942 -30.4375 55.3125 C-34.06613832 45.13653601 -32.59537112 35.71126189 -28.09375 26.1328125 C-27.7328125 25.42898437 -27.371875 24.72515625 -27 24 C-28.32 24 -29.64 24 -31 24 C-31.33 24.66 -31.66 25.32 -32 26 C-32 25.34 -32 24.68 -32 24 C-32.66 24 -33.32 24 -34 24 C-34.33 24.99 -34.66 25.98 -35 27 C-36.32 25.68 -37.64 24.36 -39 23 C-37.76325015 16.661657 -34.10791568 13.53434811 -29 10 C-23.82985866 7.19108243 -18.81995633 4.98572233 -13 4 C-13.66 4.928125 -14.32 5.85625 -15 6.8125 C-17.26574554 9.79636556 -17.26574554 9.79636556 -17 13 C-16.03900391 12.09507813 -16.03900391 12.09507813 -15.05859375 11.171875 C-10.2725339 6.74958423 -5.83769647 2.91884824 0 0 Z M-36 22 C-35 24 -35 24 -35 24 Z "
        fill="#09120E" transform="translate(91,41)" />
    <path
        d="M0 0 C12.87 0 25.74 0 39 0 C39 3.3 39 6.6 39 10 C39.99 10.33 40.98 10.66 42 11 C43.125 13.4375 43.125 13.4375 44 16 C44.495 16.99 44.495 16.99 45 18 C41.71542381 20.18971746 40.7824019 20.24583902 36.9777832 20.22705078 C35.95695145 20.22689972 34.93611969 20.22674866 33.88435364 20.22659302 C32.78427475 20.21627045 31.68419586 20.20594788 30.55078125 20.1953125 C28.85915108 20.19106766 28.85915108 20.19106766 27.13334656 20.18673706 C23.52629042 20.17552916 19.91948127 20.15042323 16.3125 20.125 C13.86914421 20.114971 11.42578453 20.10584501 8.98242188 20.09765625 C2.98819677 20.07558783 -3.00588397 20.04210417 -9 20 C-9 19.01 -9 18.02 -9 17 C-4.89898326 13.52990891 -0.80776746 13.63404564 4.3125 13.8125 C5.05306641 13.82603516 5.79363281 13.83957031 6.55664062 13.85351562 C8.37141075 13.88864021 10.18580288 13.94244028 12 14 C12 13.34 12 12.68 12 12 C6.06 11.01 6.06 11.01 0 10 C0 6.7 0 3.4 0 0 Z "
        fill="#09120D" transform="translate(56,148)" />
    <path
        d="M0 0 C0.66 0.33 1.32 0.66 2 1 C1.360625 1.7425 0.72125 2.485 0.0625 3.25 C-1.78224214 5.70965619 -2.69008073 7.00411372 -3 10 C-2.67 10.66 -2.34 11.32 -2 12 C-2.4375 14.125 -2.4375 14.125 -3 16 C-2.01 16.33 -1.02 16.66 0 17 C-0.66 17.33 -1.32 17.66 -2 18 C-2.4683265 20.58605332 -2.4683265 20.58605332 -2.625 23.5625 C-2.69976562 24.57441406 -2.77453125 25.58632812 -2.8515625 26.62890625 C-2.90054688 27.41136719 -2.94953125 28.19382812 -3 29 C-3.33 29 -3.66 29 -4 29 C-4.495 26.525 -4.495 26.525 -5 24 C-6.00109515 27.31070838 -6.10356134 30.30084769 -6.0625 33.75 C-6.05347656 34.73484375 -6.04445313 35.7196875 -6.03515625 36.734375 C-6.02355469 37.48203125 -6.01195313 38.2296875 -6 39 C-9 40 -9 40 -12 40 C-12.78259231 49.19545963 -8.36649808 55.86187027 -3.171875 63.15234375 C-2 65 -2 65 -2 67 C-8.57035323 64.23353548 -12.52287538 57.58775942 -15.4375 51.3125 C-19.06613832 41.13653601 -17.59537112 31.71126189 -13.09375 22.1328125 C-12.7328125 21.42898437 -12.371875 20.72515625 -12 20 C-13.32 20 -14.64 20 -16 20 C-16.33 20.66 -16.66 21.32 -17 22 C-17 21.34 -17 20.68 -17 20 C-17.66 20 -18.32 20 -19 20 C-19.33 20.99 -19.66 21.98 -20 23 C-21.32 21.68 -22.64 20.36 -24 19 C-22.7644666 12.66789132 -19.11041626 9.52470832 -14 6 C-9.47314674 3.60089112 -4.85868292 1.61956097 0 0 Z M-21 18 C-20 20 -20 20 -20 20 Z "
        fill="#0F1713" transform="translate(76,45)" />
    <path
        d="M0 0 C1.70840281 1.63412443 2.93453047 2.86906094 4 5 C4.66 4.34 5.32 3.68 6 3 C8.24658203 2.77294922 8.24658203 2.77294922 11.0078125 2.8046875 C11.99394531 2.81113281 12.98007813 2.81757813 13.99609375 2.82421875 C15.54490234 2.84935547 15.54490234 2.84935547 17.125 2.875 C18.16527344 2.88402344 19.20554688 2.89304688 20.27734375 2.90234375 C22.85179092 2.92596253 25.42578212 2.95889851 28 3 C28 4.32 28 5.64 28 7 C28.99 7.495 28.99 7.495 30 8 C28.84371094 8.07347656 28.84371094 8.07347656 27.6640625 8.1484375 C26.15972656 8.26058594 26.15972656 8.26058594 24.625 8.375 C23.62726563 8.44460937 22.62953125 8.51421875 21.6015625 8.5859375 C18.84491121 8.76363964 18.84491121 8.76363964 17 11 C17.495 13.475 17.495 13.475 18 16 C14.04 16 10.08 16 6 16 C5.505 13.525 5.505 13.525 5 11 C2.69 11.66 0.38 12.32 -2 13 C-2.495 10.525 -2.495 10.525 -3 8 C-15.87 8 -28.74 8 -42 8 C-42.33 6.35 -42.66 4.7 -43 3 C-42 2 -42 2 -38.33813477 1.88647461 C-36.70588336 1.88663384 -35.07362697 1.89233432 -33.44140625 1.90234375 C-32.58191879 1.9037587 -31.72243134 1.90517365 -30.8368988 1.90663147 C-28.07873109 1.91224733 -25.32064332 1.92479629 -22.5625 1.9375 C-20.7050793 1.9425135 -18.84765733 1.94707667 -16.99023438 1.95117188 C-12.3267947 1.96240844 -7.6634117 1.98048028 -3 2 C-2.34 2 -1.68 2 -1 2 C-0.67 1.34 -0.34 0.68 0 0 Z "
        fill="#F0F1F1" transform="translate(173,136)" />
    <path
        d="M0 0 C4.53672959 4.53672959 4.99061384 10.97586446 5.3125 17.125 C5.08284545 29.5472233 -1.40720729 38.62135789 -10 47 C-10.66 46.67 -11.32 46.34 -12 46 C-11.52949219 45.29875 -11.05898437 44.5975 -10.57421875 43.875 C-6.95945954 38.36679549 -4.01373173 33.27810479 -2 27 C-2.99 29.475 -2.99 29.475 -4 32 C-4.66 31.67 -5.32 31.34 -6 31 C-6.54527344 31.70125 -7.09054688 32.4025 -7.65234375 33.125 C-14.42184322 41.64184036 -21.23161127 49.0118866 -31 54 C-29.68206814 48.33289301 -27.51290803 46.33562767 -23 43 C-23.66 42.34 -24.32 41.68 -25 41 C-23.47448614 37.08480837 -21.10529156 35.27523049 -17.8125 32.75 C-9.86534572 26.36724617 -4.18874978 21.48040618 -3 11 C-2.01 11.33 -1.02 11.66 0 12 C0 12.99 0 13.98 0 15 C0.66 15 1.32 15 2 15 C1.01 7.575 1.01 7.575 0 0 Z "
        fill="#131715" transform="translate(160,67)" />
    <path
        d="M0 0 C1.31225809 3.93677426 0.3393954 5.7794262 -0.9375 9.6875 C-1.50791016 11.45673828 -1.50791016 11.45673828 -2.08984375 13.26171875 C-2.39019531 14.16535156 -2.69054687 15.06898437 -3 16 C-1.82050781 16.45826172 -1.82050781 16.45826172 -0.6171875 16.92578125 C3.5269337 18.62672652 3.5269337 18.62672652 5 21 C4.6875 24.6875 4.6875 24.6875 4 28 C0.34294605 29.61340615 -2.99323699 30.74957731 -7 31 C-9.875 29.5625 -9.875 29.5625 -12 28 C-12 28.66 -12 29.32 -12 30 C-12.66 29.67 -13.32 29.34 -14 29 C-12.25 22.25 -12.25 22.25 -10 20 C-9.01 22.31 -8.02 24.62 -7 27 C-7 25.35 -7 23.7 -7 22 C-6.34 22 -5.68 22 -5 22 C-4.67 19.36 -4.34 16.72 -4 14 C-7.11332248 14.66868314 -7.11332248 14.66868314 -8.1875 17.0625 C-8.455625 17.701875 -8.72375 18.34125 -9 19 C-9.33 18.34 -9.66 17.68 -10 17 C-11.9001177 15.75825204 -11.9001177 15.75825204 -14 15 C-14.99 15.495 -14.99 15.495 -16 16 C-16.33 15.01 -16.66 14.02 -17 13 C-11.63820705 7.95106821 -6.61519148 3.30759574 0 0 Z "
        fill="#0F1712" transform="translate(91,41)" />
    <path
        d="M0 0 C0.99 0 1.98 0 3 0 C2.9278125 0.60328125 2.855625 1.2065625 2.78125 1.828125 C2.64203125 3.02695313 2.64203125 3.02695313 2.5 4.25 C2.36078125 5.43335937 2.36078125 5.43335937 2.21875 6.640625 C1.93845381 9.26890397 1.93845381 9.26890397 2 13 C4.97 13.33 7.94 13.66 11 14 C11.495 15.98 11.495 15.98 12 18 C11 19 11 19 9.15234375 19.09765625 C7.1015625 19.06510417 5.05078125 19.03255208 3 19 C2.67 19.66 2.34 20.32 2 21 C0.0625 23.625 0.0625 23.625 -2 26 C-2.66 26 -3.32 26 -4 26 C-4.33 24.35 -4.66 22.7 -5 21 C-5.99 21.99 -6.98 22.98 -8 24 C-8.66 22.68 -9.32 21.36 -10 20 C-22.54 19.67 -35.08 19.34 -48 19 C-48 18.67 -48 18.34 -48 18 C-34.8 18 -21.6 18 -8 18 C-8 15.69 -8 13.38 -8 11 C-6.35546875 7.91015625 -6.35546875 7.91015625 -4.1875 5.0625 C-3.47980469 4.10472656 -2.77210938 3.14695312 -2.04296875 2.16015625 C-1.03169922 1.09087891 -1.03169922 1.09087891 0 0 Z "
        fill="#E9EBEA" transform="translate(179,116)" />
    <path
        d="M0 0 C0.85948746 -0.0033284 1.71897491 -0.0066568 2.60450745 -0.01008606 C4.42619286 -0.01515895 6.24788761 -0.01749427 8.06958008 -0.01733398 C10.86359915 -0.01951928 13.65722282 -0.03766769 16.45117188 -0.05664062 C18.21744656 -0.05957465 19.98372313 -0.06155939 21.75 -0.0625 C23.00942665 -0.07327827 23.00942665 -0.07327827 24.29429626 -0.08427429 C30.21258444 -0.06085306 30.21258444 -0.06085306 32.44140625 2.16796875 C32.44140625 3.15796875 32.44140625 4.14796875 32.44140625 5.16796875 C29.10985374 6.833745 25.37604566 6.28804731 21.71484375 6.265625 C20.42061996 6.26350258 20.42061996 6.26350258 19.10025024 6.26133728 C16.33893395 6.25573063 13.57769813 6.24317702 10.81640625 6.23046875 C8.94661575 6.22545461 7.07682399 6.22089155 5.20703125 6.21679688 C0.61845848 6.20575904 -3.97005398 6.18848995 -8.55859375 6.16796875 C-8.94078142 4.51182218 -9.27254477 2.84339851 -9.55859375 1.16796875 C-7.46418256 -0.92644244 -2.89193693 0.00382373 0 0 Z "
        fill="#1C211F" transform="translate(64.55859375,137.83203125)" />
    <path
        d="M0 0 C1.64510941 0.00015915 3.29022379 0.00585551 4.93530273 0.01586914 C6.23164894 0.01799156 6.23164894 0.01799156 7.55418396 0.02015686 C10.32578941 0.025773 13.09731528 0.0383282 15.86889648 0.05102539 C17.74324428 0.05603831 19.61759334 0.06060158 21.49194336 0.06469727 C26.09679192 0.07574767 30.70158069 0.09302309 35.30639648 0.11352539 C35.96639648 1.43352539 36.62639648 2.75352539 37.30639648 4.11352539 C35.30639648 6.11352539 35.30639648 6.11352539 31.49926758 6.34057617 C29.85942228 6.34025885 28.21955631 6.3289222 26.57983398 6.30883789 C25.71701813 6.306008 24.85420227 6.3031781 23.96524048 6.30026245 C21.20381929 6.28904872 18.44271999 6.26394223 15.68139648 6.23852539 C13.81160949 6.22849712 11.94181743 6.21937101 10.07202148 6.21118164 C5.4833554 6.18910551 0.89493055 6.15456773 -3.69360352 6.11352539 C-4.07579119 4.45737882 -4.40755453 2.78895515 -4.69360352 1.11352539 C-3.69360352 0.11352539 -3.69360352 0.11352539 0 0 Z "
        fill="#282D2B" transform="translate(134.693603515625,137.886474609375)" />
    <path
        d="M0 0 C0.87454834 0.00523682 1.74909668 0.01047363 2.65014648 0.01586914 C3.59438477 0.0190918 4.53862305 0.02231445 5.51147461 0.02563477 C6.50469727 0.03401367 7.49791992 0.04239258 8.52124023 0.05102539 C9.51833008 0.05553711 10.51541992 0.06004883 11.54272461 0.06469727 C14.01478872 0.07652532 16.48673541 0.0930069 18.95874023 0.11352539 C18.95874023 4.39062238 18.25253773 5.67282915 15.95874023 9.11352539 C17.27874023 9.44352539 18.59874023 9.77352539 19.95874023 10.11352539 C19.62874023 11.10352539 19.29874023 12.09352539 18.95874023 13.11352539 C17.0231471 13.24856677 15.08486823 13.34553668 13.14624023 13.42602539 C11.52782227 13.51303711 11.52782227 13.51303711 9.87670898 13.60180664 C6.95874023 13.11352539 6.95874023 13.11352539 5.07202148 10.78149414 C3.95874023 8.11352539 3.95874023 8.11352539 3.95874023 5.11352539 C1.97874023 5.11352539 -0.00125977 5.11352539 -2.04125977 5.11352539 C-2.60375977 3.17602539 -2.60375977 3.17602539 -3.04125977 1.11352539 C-2.04125977 0.11352539 -2.04125977 0.11352539 0 0 Z "
        fill="#ECECEC" transform="translate(29.041259765625,138.886474609375)" />
    <path
        d="M0 0 C3.16115776 1.36983503 3.9927092 1.9890638 6 5 C6 6.98 6 8.96 6 11 C18.54 11 31.08 11 44 11 C44 11.33 44 11.66 44 12 C42.93563721 12.0093457 41.87127441 12.01869141 40.7746582 12.02832031 C36.81395089 12.06828657 32.85401493 12.13406299 28.89379883 12.20751953 C27.1819858 12.23569086 25.47004363 12.25692452 23.75805664 12.27099609 C21.29246081 12.29247965 18.82841139 12.33915416 16.36328125 12.390625 C15.22080681 12.39246796 15.22080681 12.39246796 14.05525208 12.39434814 C9.07079624 12.53078735 6.53632844 13.4962968 3 17 C2.401875 17.5775 1.80375 18.155 1.1875 18.75 C0.795625 19.1625 0.40375 19.575 0 20 C-0.66 19.01 -1.32 18.02 -2 17 C-2.99 16.67 -3.98 16.34 -5 16 C-5.33 15.01 -5.66 14.02 -6 13 C-8.64 12.67 -11.28 12.34 -14 12 C-14 10.35 -14 8.7 -14 7 C-12.083412 6.97287847 -10.1667127 6.95354903 -8.25 6.9375 C-6.64898437 6.92009766 -6.64898437 6.92009766 -5.015625 6.90234375 C-2.46631499 6.98489913 -0.42066409 7.25382442 2 8 C1.47731534 5.23723823 0.89130413 2.6739124 0 0 Z "
        fill="#DCDDDD" transform="translate(50,123)" />
    <path
        d="M0 0 C16.83 0 33.66 0 51 0 C40.08635637 5.45682181 26.00929034 4.26062812 14.0625 4.125 C12.49284436 4.1149329 10.92318235 4.10581375 9.35351562 4.09765625 C5.56884809 4.07597755 1.78449811 4.04166185 -2 4 C-1.34 2.68 -0.68 1.36 0 0 Z "
        fill="#EBEDEB" transform="translate(47,168)" />
    <path
        d="M0 0 C1.32 0 2.64 0 4 0 C4.64775391 0.68642578 4.64775391 0.68642578 5.30859375 1.38671875 C7.86809255 3.8279959 10.64522589 4.05117444 14.0625 4.8125 C24.31761042 7.32352752 31.54856805 11.51127375 38 20 C37.67 20.66 37.34 21.32 37 22 C36.52691406 21.54109375 36.05382812 21.0821875 35.56640625 20.609375 C27.65458062 13.26818786 20.22881029 10.62633569 9.671875 9.30175781 C4.61352375 8.5484389 2.25862768 6.88382951 -1 3 C-0.67 2.01 -0.34 1.02 0 0 Z "
        fill="#E7ECE8" transform="translate(136,45)" />
    <path
        d="M0 0 C1.32 0.33 2.64 0.66 4 1 C4.125 6.75 4.125 6.75 3 9 C2.34 9 1.68 9 1 9 C1 10.65 1 12.3 1 14 C-1.51083114 12.74458443 -1.87125446 11.49936512 -3 9 C-3.66 11.31 -4.32 13.62 -5 16 C-4.67 15.67 -4.34 15.34 -4 15 C-3.34 15 -2.68 15 -2 15 C-2.75 17.4375 -2.75 17.4375 -4 20 C-6.125 20.8125 -6.125 20.8125 -8 21 C-8 20.01 -8 19.02 -8 18 C-8.66 19.32 -9.32 20.64 -10 22 C-10.05437607 20.41705218 -10.09296271 18.83355744 -10.125 17.25 C-10.14820312 16.36828125 -10.17140625 15.4865625 -10.1953125 14.578125 C-9.99139502 11.8864142 -9.36551721 10.30095026 -8 8 C-8.66 7.67 -9.32 7.34 -10 7 C-9.67 5.02 -9.34 3.04 -9 1 C-5.79604584 1 -3.90600261 1.74335022 -1 3 C-1 3.66 -1 4.32 -1 5 C-0.67 3.35 -0.34 1.7 0 0 Z "
        fill="#07100B" transform="translate(83,54)" />
    <path
        d="M0 0 C4.53672959 4.53672959 4.99061384 10.97586446 5.3125 17.125 C5.08284545 29.5472233 -1.40720729 38.62135789 -10 47 C-10.66 46.67 -11.32 46.34 -12 46 C-11.55269531 45.34515625 -11.10539063 44.6903125 -10.64453125 44.015625 C-1.26104254 29.85035846 3.00282429 16.89088663 0 0 Z "
        fill="#D7DAD7" transform="translate(160,67)" />
    <path
        d="M0 0 C0.33 0.66 0.66 1.32 1 2 C0.69835937 2.89460938 0.39671875 3.78921875 0.0859375 4.7109375 C-3.09888011 14.35703974 -1.30499182 24.99301422 3 34 C4.7562879 36.79050454 6.59784921 39.42745968 8.609375 42.0390625 C10 44 10 44 10 46 C3.42964677 43.23353548 -0.52287538 36.58775942 -3.4375 30.3125 C-6.74883456 21.09523539 -5.98607672 11.61098576 -1.97265625 2.79296875 C-1 1 -1 1 0 0 Z "
        fill="#E1E6E4" transform="translate(64,66)" />
    <path
        d="M0 0 C10.21234833 2.00898656 19.41402051 4.99719485 28 11 C27.01 11.99 26.02 12.98 25 14 C24.34515625 13.67386719 23.6903125 13.34773438 23.015625 13.01171875 C16.93758114 10.10146894 11.12159302 8.0892364 4.53125 6.67578125 C2 6 2 6 -1 4 C-0.67 2.68 -0.34 1.36 0 0 Z "
        fill="#151816" transform="translate(141,43)" />
    <path
        d="M0 0 C-1.59043379 5.08938811 -4.7446951 8.87456643 -8 13 C-12.455 12.01 -12.455 12.01 -17 11 C-16.67 9.02 -16.34 7.04 -16 5 C-15.01 4.67 -14.02 4.34 -13 4 C-12.01 3.34 -11.02 2.68 -10 2 C-10 2.66 -10 3.32 -10 4 C-9.34 4 -8.68 4 -8 4 C-8 2.68 -8 1.36 -8 0 C-4.71303767 -0.79953138 -3.28976808 -1.09658936 0 0 Z "
        fill="#111715" transform="translate(108,82)" />
    <path
        d="M0 0 C8.58 0 17.16 0 26 0 C21.68281407 3.23788945 19.51906879 4.13069471 14.33203125 4.09765625 C13.43935547 4.09443359 12.54667969 4.09121094 11.62695312 4.08789062 C10.23379883 4.07532227 10.23379883 4.07532227 8.8125 4.0625 C7.87212891 4.05798828 6.93175781 4.05347656 5.96289062 4.04882812 C3.64186288 4.03704626 1.32096356 4.02059558 -1 4 C-0.67 2.68 -0.34 1.36 0 0 Z "
        fill="#EAECEA" transform="translate(122,168)" />
    <path
        d="M0 0 C0 4.30158949 -2.5212152 6.25842648 -5.3125 9.25 C-5.8477832 9.82903076 -6.38306641 10.40806152 -6.93457031 11.00463867 C-11.74812362 16.04501972 -16.85513491 19.67354744 -23 23 C-21.70119251 17.07255642 -18.99421354 14.88500607 -14.3125 11.5 C-13.04474502 10.54667288 -11.77780908 9.59225554 -10.51171875 8.63671875 C-9.90505371 8.18474121 -9.29838867 7.73276367 -8.67333984 7.26708984 C-5.65827338 4.98401501 -2.83631394 2.49865752 0 0 Z "
        fill="#E9EDEB" transform="translate(152,98)" />
    <path
        d="M0 0 C6.93 0 13.86 0 21 0 C21 1.32 21 2.64 21 4 C14.07 4 7.14 4 0 4 C0 2.68 0 1.36 0 0 Z "
        fill="#060B09" transform="translate(27,139)" />
    <path
        d="M0 0 C2.00720923 0.28674418 4.0085944 0.61866701 6 1 C6 2.32 6 3.64 6 5 C6.99 4.34 7.98 3.68 9 3 C9.99 3 10.98 3 12 3 C12.99 2.67 13.98 2.34 15 2 C14.75 3.875 14.75 3.875 14 6 C12.0625 7.0625 12.0625 7.0625 10 8 C9.01 9.485 9.01 9.485 8 11 C6.70590711 10.38003922 5.41480327 9.75383647 4.125 9.125 C3.40570313 8.77695313 2.68640625 8.42890625 1.9453125 8.0703125 C0 7 0 7 -2 5 C-1.46428571 1.46428571 -1.46428571 1.46428571 0 0 Z "
        fill="#F9FAFA" transform="translate(107,173)" />
    <path
        d="M0 0 C0.33 0 0.66 0 1 0 C1.16435547 0.99580078 1.16435547 0.99580078 1.33203125 2.01171875 C2.25765215 7.62844855 2.25765215 7.62844855 4.8125 12.625 C6 15 6 15 5.5234375 17.07421875 C4.76624875 19.1016447 3.94234758 21.05248167 3 23 C-0.15318049 20.05025051 -1.83864889 18.18011622 -2.16796875 13.73046875 C-2.20631579 8.73768415 -1.9716582 4.68268823 0 0 Z "
        fill="#F1F4F2" transform="translate(71,67)" />
    <path
        d="M0 0 C6.6 0 13.2 0 20 0 C20.33 1.32 20.66 2.64 21 4 C13.74 4 6.48 4 -1 4 C-0.67 2.68 -0.34 1.36 0 0 Z "
        fill="#111514" transform="translate(179,139)" />
    <path
        d="M0 0 C1.32 0.66 2.64 1.32 4 2 C4 2.66 4 3.32 4 4 C5.65 4.33 7.3 4.66 9 5 C8.34 6.98 7.68 8.96 7 11 C5.35 11 3.7 11 2 11 C1.67 10.34 1.34 9.68 1 9 C-0.65 9.66 -2.3 10.32 -4 11 C-3.38461538 3.49230769 -3.38461538 3.49230769 -1.4375 1 C-0.963125 0.67 -0.48875 0.34 0 0 Z "
        fill="#111713" transform="translate(133,59)" />
    <path
        d="M0 0 C0.33 0.66 0.66 1.32 1 2 C1.58247498 1.83544815 2.16494995 1.6708963 2.76507568 1.50135803 C6.24638773 0.72039926 9.72311544 0.99619728 13.265625 1.12109375 C14.05902283 1.14470474 14.85242065 1.16831573 15.66986084 1.19264221 C18.19676683 1.26903929 20.72334767 1.35316613 23.25 1.4375 C24.96613008 1.4907447 26.68227588 1.54348493 28.3984375 1.59570312 C32.59916311 1.72462187 36.79961392 1.86047226 41 2 C40.67 2.66 40.34 3.32 40 4 C27.13 4 14.26 4 1 4 C0.67 2.68 0.34 1.36 0 0 Z "
        fill="#111614" transform="translate(130,140)" />
    <path
        d="M0 0 C1.89213369 2.38573379 3.02391783 4.07175348 4 7 C4 5.35 4 3.7 4 2 C4.66 2 5.32 2 6 2 C6.33 1.34 6.66 0.68 7 0 C7 0.66 7 1.32 7 2 C7.66 2.33 8.32 2.66 9 3 C9 3.66 9 4.32 9 5 C9.495 5.495 9.99 5.99 10.5 6.5 C10.995 6.995 11.49 7.49 12 8 C12 8.66 12 9.32 12 10 C4.73846154 11.35384615 4.73846154 11.35384615 1 9.5625 C0.34 9.046875 -0.32 8.53125 -1 8 C-1 8.66 -1 9.32 -1 10 C-1.66 9.67 -2.32 9.34 -3 9 C-1.125 2.25 -1.125 2.25 0 0 Z "
        fill="#111914" transform="translate(80,61)" />
    <path
        d="M0 0 C1.99996498 1.65168612 2.91796488 2.52102077 3.36328125 5.12109375 C3.34652344 5.88550781 3.32976562 6.64992188 3.3125 7.4375 C3.30863281 8.19933594 3.30476562 8.96117188 3.30078125 9.74609375 C2.9739386 12.19529127 2.21954601 13.86700917 1 16 C-1.92879371 15.37240135 -4.36095629 14.41377341 -7 13 C-7 12.34 -7 11.68 -7 11 C-6.21625 10.2575 -5.4325 9.515 -4.625 8.75 C-1.85847277 5.85173338 -0.97988742 3.830469 0 0 Z "
        fill="#F1F3F2" transform="translate(154,72)" />
    <path
        d="M0 0 C0.66 0.33 1.32 0.66 2 1 C1.51448049 5.91316753 0.15928335 8.71040598 -2.8125 12.625 C-3.49957031 13.54539062 -4.18664062 14.46578125 -4.89453125 15.4140625 C-6.81316421 17.77052821 -8.80678883 19.90043155 -11 22 C-11.66 21.67 -12.32 21.34 -13 21 C-12.52949219 20.27554688 -12.05898437 19.55109375 -11.57421875 18.8046875 C-7.60311225 12.74857048 -7.60311225 12.74857048 -4.1875 6.375 C-3 4 -3 4 -1 3 C-0.67 2.01 -0.34 1.02 0 0 Z "
        fill="#E3E8E5" transform="translate(161,92)" />
    <path
        d="M0 0 C1.99954746 -0.04254356 4.00041636 -0.04080783 6 0 C6.33 0.33 6.66 0.66 7 1 C7.99 1 8.98 1 10 1 C10 1.99 10 2.98 10 4 C10.66 4.33 11.32 4.66 12 5 C11.01 5.33 10.02 5.66 9 6 C9 6.66 9 7.32 9 8 C10.32 8.66 11.64 9.32 13 10 C13 10.99 13 11.98 13 13 C12.57589844 12.62488281 12.15179688 12.24976563 11.71484375 11.86328125 C7.63482662 8.30335421 3.4486524 5.08682003 -1 2 C-0.67 1.34 -0.34 0.68 0 0 Z "
        fill="#E8ECEB" transform="translate(164,49)" />
    <path
        d="M0 0 C3.96 0 7.92 0 12 0 C12.33 1.32 12.66 2.64 13 4 C12 5 12 5 9.27734375 5.09765625 C7.62412109 5.08025391 7.62412109 5.08025391 5.9375 5.0625 C4.83277344 5.05347656 3.72804687 5.04445312 2.58984375 5.03515625 C1.30787109 5.01775391 1.30787109 5.01775391 0 5 C0 3.35 0 1.7 0 0 Z "
        fill="#363837" transform="translate(36,130)" />
    <path
        d="M0 0 C0.66 0.33 1.32 0.66 2 1 C1.88512252 2.58409994 1.75765492 4.16728963 1.625 5.75 C1.55539063 6.63171875 1.48578125 7.5134375 1.4140625 8.421875 C0.99728082 11.01693077 0.29051734 12.73181801 -1 15 C-1.37125 15.7425 -1.7425 16.485 -2.125 17.25 C-2.41375 17.8275 -2.7025 18.405 -3 19 C-4.05399717 15.83800849 -4.23445913 13.38539814 -4.3125 10.0625 C-4.36857422 8.50208984 -4.36857422 8.50208984 -4.42578125 6.91015625 C-3.90518772 3.35197109 -2.73312501 2.23717333 0 0 Z "
        fill="#19211E" transform="translate(44,80)" />
    <path
        d="M0 0 C1.51400391 0.01740234 1.51400391 0.01740234 3.05859375 0.03515625 C4.07050781 0.04417969 5.08242187 0.05320313 6.125 0.0625 C7.29869141 0.07990234 7.29869141 0.07990234 8.49609375 0.09765625 C9.05859375 2.03515625 9.05859375 2.03515625 9.49609375 4.09765625 C8.49609375 5.09765625 8.49609375 5.09765625 5.9921875 5.1953125 C4.47818359 5.17791016 4.47818359 5.17791016 2.93359375 5.16015625 C1.92167969 5.15113281 0.90976563 5.14210937 -0.1328125 5.1328125 C-0.91527344 5.12121094 -1.69773438 5.10960937 -2.50390625 5.09765625 C-3.06640625 3.16015625 -3.06640625 3.16015625 -3.50390625 1.09765625 C-2.50390625 0.09765625 -2.50390625 0.09765625 0 0 Z "
        fill="#2C302F" transform="translate(181.50390625,129.90234375)" />
    <path
        d="M0 0 C1.3599266 0.02640634 2.71958195 0.07385351 4.078125 0.140625 C4.77550781 0.15867188 5.47289062 0.17671875 6.19140625 0.1953125 C7.90424039 0.24223946 9.61636324 0.31397895 11.328125 0.390625 C11.328125 1.050625 11.328125 1.710625 11.328125 2.390625 C11.988125 2.390625 12.648125 2.390625 13.328125 2.390625 C13.328125 3.050625 13.328125 3.710625 13.328125 4.390625 C6.398125 4.390625 -0.531875 4.390625 -7.671875 4.390625 C-3.671875 0.390625 -3.671875 0.390625 0 0 Z "
        fill="#E3E5E3" transform="translate(135.671875,157.609375)" />
    <path
        d="M0 0 C0.99 1.485 0.99 1.485 2 3 C2.99 2.34 3.98 1.68 5 1 C5.66 1.33 6.32 1.66 7 2 C7.59355614 4.64860427 7.74209269 7.29197322 8 10 C5 11 5 11 2 11 C1.34 11.99 0.68 12.98 0 14 C0 9.38 0 4.76 0 0 Z "
        fill="#181E1B" transform="translate(62,74)" />
    <path
        d="M0 0 C4 0 4 0 5.5625 1.4375 C6.036875 1.953125 6.51125 2.46875 7 3 C7.99 3.33 8.98 3.66 10 4 C10.6875 6.0625 10.6875 6.0625 11 8 C7.8125 8.3125 7.8125 8.3125 4 8 C1.0625 5.5 1.0625 5.5 -1 3 C-0.67 2.01 -0.34 1.02 0 0 Z "
        fill="#F4F5F2" transform="translate(136,45)" />
    <path
        d="M0 0 C3.96 0 7.92 0 12 0 C12 1.32 12 2.64 12 4 C8.04 4 4.08 4 0 4 C0 2.68 0 1.36 0 0 Z "
        fill="#0E1211" transform="translate(36,148)" />
    <path
        d="M0 0 C4.29 0 8.58 0 13 0 C13 1.32 13 2.64 13 4 C9.04 4 5.08 4 1 4 C0.67 2.68 0.34 1.36 0 0 Z "
        fill="#0A0D0C" transform="translate(178,148)" />
    <path
        d="M0 0 C1.32 0.33 2.64 0.66 4 1 C2.44997253 4.88397689 -0.00476621 7.02979619 -3.125 9.75 C-4.49011719 10.94882812 -4.49011719 10.94882812 -5.8828125 12.171875 C-6.58148438 12.77515625 -7.28015625 13.3784375 -8 14 C-8.33 13.34 -8.66 12.68 -9 12 C-7.39701907 8.31314387 -5.52394612 5.12488567 -3 2 C-2.34 2.33 -1.68 2.66 -1 3 C-0.67 2.01 -0.34 1.02 0 0 Z "
        fill="#EDF1EF" transform="translate(81,42)" />
    <path
        d="M0 0 C2.4375 0.8125 2.4375 0.8125 5 2 C5.33 2.99 5.66 3.98 6 5 C5.67 5.66 5.34 6.32 5 7 C5.99 7 6.98 7 8 7 C8 7.99 8 8.98 8 10 C4.08788267 8.84414715 1.1254959 7.64465038 -2 5 C-1.125 1.125 -1.125 1.125 0 0 Z "
        fill="#E7EAEA" transform="translate(100,158)" />
    <path
        d="M0 0 C1.46015291 0.28241641 2.91809793 0.57626614 4.375 0.875 C5.18710938 1.03742187 5.99921875 1.19984375 6.8359375 1.3671875 C9 2 9 2 11 4 C10.67 4.66 10.34 5.32 10 6 C8.741875 6.04125 7.48375 6.0825 6.1875 6.125 C5.47980469 6.14820313 4.77210938 6.17140625 4.04296875 6.1953125 C2 6 2 6 -1 4 C-0.67 2.68 -0.34 1.36 0 0 Z "
        fill="#151817" transform="translate(141,43)" />
    <path
        d="M0 0 C0.495 1.485 0.495 1.485 1 3 C-2.33155251 4.66577625 -6.06536059 4.12007856 -9.7265625 4.09765625 C-11.02078629 4.09553383 -11.02078629 4.09553383 -12.34115601 4.09336853 C-15.1024723 4.08776188 -17.86370812 4.07520827 -20.625 4.0625 C-22.4947905 4.05748586 -24.36458226 4.0529228 -26.234375 4.04882812 C-30.82294777 4.03779029 -35.41146023 4.0205212 -40 4 C-40 3.67 -40 3.34 -40 3 C-28.12 3 -16.24 3 -4 3 C-4 2.34 -4 1.68 -4 1 C-2.68 1.33 -1.36 1.66 0 2 C0 1.34 0 0.68 0 0 Z "
        fill="#242A28" transform="translate(96,140)" />
    <path
        d="M0 0 C0.66 0 1.32 0 2 0 C2.95921722 1.74951568 3.91733817 3.49963244 4.875 5.25 C5.67550781 6.71179688 5.67550781 6.71179688 6.4921875 8.203125 C7.70419466 10.45130408 8.87547567 12.7072805 10 15 C6.44263493 13.5328827 4.55804833 11.6293581 2.1875 8.625 C1.56230469 7.85414062 0.93710938 7.08328125 0.29296875 6.2890625 C-1 4 -1 4 -0.69921875 1.7109375 C-0.46847656 1.14632812 -0.23773438 0.58171875 0 0 Z "
        fill="#DCDFDC" transform="translate(64,97)" />
    <path
        d="M0 0 C0 0.66 0 1.32 0 2 C1.2065625 2.433125 1.2065625 2.433125 2.4375 2.875 C5 4 5 4 6 6 C5.2575 6.2475 4.515 6.495 3.75 6.75 C0.79875938 8.09147301 -0.84814974 9.60905526 -3 12 C-2.125 7.125 -2.125 7.125 -1 6 C-3.77260299 4.06201737 -3.77260299 4.06201737 -6 3 C-2.25 0 -2.25 0 0 0 Z "
        fill="#070F0B" transform="translate(159,58)" />
    <path
        d="M0 0 C3.875 1.875 3.875 1.875 5 3 C5.125 6 5.125 6 5 9 C4 10 4 10 2 11 C1.67 11.66 1.34 12.32 1 13 C-1.0625 13.625 -1.0625 13.625 -3 14 C-2.01 12.02 -1.02 10.04 0 8 C0.66 8 1.32 8 2 8 C1.47731534 5.23723823 0.89130413 2.6739124 0 0 Z "
        fill="#F3F5F4" transform="translate(50,123)" />
    <path
        d="M0 0 C2.7710688 2.34591852 3.52059284 4.14776201 4.1875 7.6875 C4.34605469 8.49574219 4.50460938 9.30398437 4.66796875 10.13671875 C4.77753906 10.75160156 4.88710937 11.36648437 5 12 C4.01 12.66 3.02 13.32 2 14 C-0.24281523 8.79666866 -1.55577239 5.65735415 0 0 Z "
        fill="#ECEEED" transform="translate(60,85)" />
    <path
        d="M0 0 C-1.12451727 2.9719385 -2.22293791 5.33440687 -4 8 C-5.32 7.67 -6.64 7.34 -8 7 C-8 4.66666667 -8 2.33333333 -8 0 C-4.71303767 -0.79953138 -3.28976808 -1.09658936 0 0 Z "
        fill="#131615" transform="translate(108,82)" />
    <path
        d="M0 0 C0.66 0 1.32 0 2 0 C1.75 1.875 1.75 1.875 1 4 C-0.9375 5.0625 -0.9375 5.0625 -3 6 C-3.99 7.485 -3.99 7.485 -5 9 C-8 7 -8 7 -8.6875 4.875 C-8.790625 4.25625 -8.89375 3.6375 -9 3 C-6.09399739 1.74335022 -4.20395416 1 -1 1 C-0.67 0.67 -0.34 0.34 0 0 Z "
        fill="#EEF0F0" transform="translate(120,175)" />
    <path
        d="M0 0 C2.5 1.1875 2.5 1.1875 4.5 3.1875 C4.125 5.8125 4.125 5.8125 3.5 8.1875 C2.84 7.8575 2.18 7.5275 1.5 7.1875 C1.83 5.8675 2.16 4.5475 2.5 3.1875 C1.901875 3.538125 1.30375 3.88875 0.6875 4.25 C-1.5 5.1875 -1.5 5.1875 -4.5 4.1875 C-4.5 2.8675 -4.5 1.5475 -4.5 0.1875 C-2.5 -0.8125 -2.5 -0.8125 0 0 Z "
        fill="#191F1D" transform="translate(103.5,165.8125)" />
    <path
        d="M0 0 C4.875 1.875 4.875 1.875 6 3 C6.30867281 6.47256915 6.38701339 8.3872288 4.5 11.375 C4.005 11.91125 3.51 12.4475 3 13 C2.67 12.01 2.34 11.02 2 10 C1.34 9.34 0.68 8.68 0 8 C0.66 7.67 1.32 7.34 2 7 C1.34 4.69 0.68 2.38 0 0 Z "
        fill="#131917" transform="translate(177,165)" />
    <path
        d="M0 0 C0.763125 0.20625 1.52625 0.4125 2.3125 0.625 C2.3125 1.615 2.3125 2.605 2.3125 3.625 C-4.2875 3.625 -10.8875 3.625 -17.6875 3.625 C-17.3575 2.965 -17.0275 2.305 -16.6875 1.625 C-15.92824219 1.64820313 -15.16898438 1.67140625 -14.38671875 1.6953125 C-12.89591797 1.72238281 -12.89591797 1.72238281 -11.375 1.75 C-9.89580078 1.78480469 -9.89580078 1.78480469 -8.38671875 1.8203125 C-4.8053331 1.56116737 -3.61845464 -0.50490065 0 0 Z "
        fill="#080A09" transform="translate(197.6875,139.375)" />
    <path
        d="M0 0 C1 3 1 3 0 6 C5.94 6 11.88 6 18 6 C18 6.33 18 6.66 18 7 C16.96359375 7.06058594 15.9271875 7.12117187 14.859375 7.18359375 C13.48957127 7.26803371 12.11978025 7.35267997 10.75 7.4375 C9.72712891 7.49647461 9.72712891 7.49647461 8.68359375 7.55664062 C5.33432421 7.7680023 2.2443727 8.17284558 -1 9 C-2 8 -2 8 -2.1875 5.0625 C-2 2 -2 2 0 0 Z "
        fill="#2E302E" transform="translate(121,166)" />
    <path
        d="M0 0 C1.67542976 0.28604898 3.34385343 0.61781233 5 1 C3.03617993 2.50559539 1.21736634 3.89131683 -1 5 C-1 6.32 -1 7.64 -1 9 C-1.99 9.495 -1.99 9.495 -3 10 C-3.33 9.34 -3.66 8.68 -4 8 C-4.99 8 -5.98 8 -7 8 C-6.02133662 6.85373678 -5.04205413 5.70800212 -4.0625 4.5625 C-3.51722656 3.92441406 -2.97195312 3.28632812 -2.41015625 2.62890625 C-1.63204305 1.73008851 -0.84063472 0.84063472 0 0 Z "
        fill="#0B100D" transform="translate(152,91)" />
    <path
        d="M0 0 C0.99 0.66 1.98 1.32 3 2 C2.34 2 1.68 2 1 2 C0.67 3.32 0.34 4.64 0 6 C-0.66 6 -1.32 6 -2 6 C-2.33 7.32 -2.66 8.64 -3 10 C-3.66 9.67 -4.32 9.34 -5 9 C-5 8.34 -5 7.68 -5 7 C-5.99 7 -6.98 7 -8 7 C-8 6.34 -8 5.68 -8 5 C-7.34 5 -6.68 5 -6 5 C-5.67 4.34 -5.34 3.68 -5 3 C-3.35857037 1.9590934 -1.69287785 0.95495674 0 0 Z "
        fill="#131A16" transform="translate(134,117)" />
    <path
        d="M0 0 C-0.639375 0.763125 -1.27875 1.52625 -1.9375 2.3125 C-4.14232781 4.88246713 -4.14232781 4.88246713 -5 8 C-6.9375 7.25 -6.9375 7.25 -9 6 C-9.62890625 3.921875 -9.62890625 3.921875 -10 2 C-8.71211992 1.46987262 -7.41953322 0.9511671 -6.125 0.4375 C-5.40570313 0.14746094 -4.68640625 -0.14257812 -3.9453125 -0.44140625 C-2 -1 -2 -1 0 0 Z "
        fill="#1B1E1B" transform="translate(78,46)" />
    <path
        d="M0 0 C0.66 0 1.32 0 2 0 C2 0.99 2 1.98 2 3 C2.66 3 3.32 3 4 3 C3.25 10.75 3.25 10.75 1 13 C0.67 12.34 0.34 11.68 0 11 C-0.99 11.495 -0.99 11.495 -2 12 C-1.855625 11.21753906 -1.71125 10.43507813 -1.5625 9.62890625 C-1.376875 8.61699219 -1.19125 7.60507812 -1 6.5625 C-0.7215625 5.04849609 -0.7215625 5.04849609 -0.4375 3.50390625 C0.02868656 1.25946072 0.02868656 1.25946072 0 0 Z "
        fill="#ECEFEE" transform="translate(91,40)" />
    <path
        d="M0 0 C0.66 0.99 1.32 1.98 2 3 C1.67 3.66 1.34 4.32 1 5 C1.99 5 2.98 5 4 5 C3.67 6.65 3.34 8.3 3 10 C1.68 10 0.36 10 -1 10 C-3 7 -3 7 -2.75 4.4375 C-2 2 -2 2 0 0 Z "
        fill="#323635" transform="translate(122,78)" />
    <path
        d="M0 0 C0.99 0 1.98 0 3 0 C3.66 1.98 4.32 3.96 5 6 C3.68 6 2.36 6 1 6 C1 5.34 1 4.68 1 4 C-3.95 4 -8.9 4 -14 4 C-14 3.67 -14 3.34 -14 3 C-13.15695313 2.95101562 -12.31390625 2.90203125 -11.4453125 2.8515625 C-10.34960938 2.77679688 -9.25390625 2.70203125 -8.125 2.625 C-6.48917969 2.52058594 -6.48917969 2.52058594 -4.8203125 2.4140625 C-1.86953526 2.26746509 -1.86953526 2.26746509 0 0 Z "
        fill="#2C312E" transform="translate(146,154)" />
    <path
        d="M0 0 C6.93 0 13.86 0 21 0 C21 1.32 21 2.64 21 4 C20.67 3.01 20.34 2.02 20 1 C14.72 1 9.44 1 4 1 C3.67 1.66 3.34 2.32 3 3 C1.68 3 0.36 3 -1 3 C-0.67 2.01 -0.34 1.02 0 0 Z "
        fill="#161A19" transform="translate(27,139)" />
    <path
        d="M0 0 C0.99 0.33 1.98 0.66 3 1 C2.01 3.97 1.02 6.94 0 10 C-2.79872437 7.47211993 -4.45773019 5.79588866 -5 2 C-4.360625 1.855625 -3.72125 1.71125 -3.0625 1.5625 C-1.02454854 1.18992819 -1.02454854 1.18992819 0 0 Z "
        fill="#EBECEB" transform="translate(74,80)" />
    <path
        d="M0 0 C1.25541557 3.76624671 0.37061958 5.37188934 -1 9 C-2.65 9.33 -4.3 9.66 -6 10 C-4.68 8.35 -3.36 6.7 -2 5 C-3.98 5.33 -5.96 5.66 -8 6 C-5.63379989 3.38472619 -3.057952 1.73559438 0 0 Z "
        fill="#151816" transform="translate(91,41)" />
    <path
        d="M0 0 C0.66 0.33 1.32 0.66 2 1 C1.62925084 2.46491133 1.22732811 3.92195569 0.8125 5.375 C0.59207031 6.18710938 0.37164062 6.99921875 0.14453125 7.8359375 C-1 10 -1 10 -3.61328125 11.2890625 C-4.40089844 11.52367188 -5.18851563 11.75828125 -6 12 C-5.38385645 10.18447022 -4.75681772 8.3726347 -4.125 6.5625 C-3.77695313 5.55316406 -3.42890625 4.54382813 -3.0703125 3.50390625 C-2 1 -2 1 0 0 Z "
        fill="#E7EBEA" transform="translate(186,103)" />
    <path
        d="M0 0 C3.16115776 1.36983503 3.9927092 1.9890638 6 5 C5.34 5 4.68 5 4 5 C4 5.66 4 6.32 4 7 C4.99 7.33 5.98 7.66 7 8 C6.34 8.66 5.68 9.32 5 10 C2.69 7.36 0.38 4.72 -2 2 C-1.34 1.34 -0.68 0.68 0 0 Z "
        fill="#0B0F0E" transform="translate(168,55)" />
    <path
        d="M0 0 C1.875 0.125 1.875 0.125 4 1 C5.25 4.0625 5.25 4.0625 6 7 C5.01 7.495 5.01 7.495 4 8 C4 7.01 4 6.02 4 5 C1.52733235 5.34444881 1.52733235 5.34444881 -1 6 C-1.33 6.66 -1.66 7.32 -2 8 C-2.33 7.34 -2.66 6.68 -3 6 C-2.06553465 3.96855359 -1.06775224 1.96466413 0 0 Z "
        fill="#0A100C" transform="translate(66,49)" />
    <path
        d="M0 0 C1.99954746 -0.04254356 4.00041636 -0.04080783 6 0 C6.33 0.33 6.66 0.66 7 1 C7.99 1 8.98 1 10 1 C9.01 2.485 9.01 2.485 8 4 C7.34 4 6.68 4 6 4 C5.67 4.66 5.34 5.32 5 6 C3.02 4.68 1.04 3.36 -1 2 C-0.67 1.34 -0.34 0.68 0 0 Z "
        fill="#F0F4F3" transform="translate(164,49)" />
    <path
        d="M0 0 C0.33 0.66 0.66 1.32 1 2 C2.65 2 4.3 2 6 2 C5.34 3.32 4.68 4.64 4 6 C2.68 5.67 1.36 5.34 0 5 C0 4.34 0 3.68 0 3 C-1.65 3.66 -3.3 4.32 -5 5 C-5 4.01 -5 3.02 -5 2 C-3.35 1.34 -1.7 0.68 0 0 Z "
        fill="#151C18" transform="translate(143,112)" />
    <path
        d="M0 0 C4.37653129 0.47620289 6.06538005 1.66899889 8.8125 5.0625 C9.41707031 5.79597656 10.02164063 6.52945313 10.64453125 7.28515625 C11.09183594 7.85105469 11.53914062 8.41695312 12 9 C11.67 9.66 11.34 10.32 11 11 C9.72799029 9.89718873 8.45744147 8.79269231 7.1875 7.6875 C6.47980469 7.07261719 5.77210938 6.45773438 5.04296875 5.82421875 C3.29590233 4.26421871 1.5946095 2.71533703 0 1 C0 0.67 0 0.34 0 0 Z "
        fill="#D5D9D8" transform="translate(162,56)" />
    <path
        d="M0 0 C1.65 0.33 3.3 0.66 5 1 C5 2.65 5 4.3 5 6 C1.37 5.34 -2.26 4.68 -6 4 C-6 3.67 -6 3.34 -6 3 C-4.35 3 -2.7 3 -1 3 C-0.67 2.01 -0.34 1.02 0 0 Z "
        fill="#212522" transform="translate(152,46)" />
    <path
        d="M0 0 C0.99 0.33 1.98 0.66 3 1 C3 1.99 3 2.98 3 4 C3.66 4 4.32 4 5 4 C4 7 4 7 2 8 C1.34 8.99 0.68 9.98 0 11 C-1.05404945 7.01803543 -0.84098656 4.01804691 0 0 Z "
        fill="#151C19" transform="translate(157,78)" />
    <path
        d="M0 0 C-2.64 2.64 -5.28 5.28 -8 8 C-8.66 7.34 -9.32 6.68 -10 6 C-9.34 6 -8.68 6 -8 6 C-7.71125 5.030625 -7.4225 4.06125 -7.125 3.0625 C-5.42428309 -1.56722937 -4.80656894 -1.20164224 0 0 Z "
        fill="#E8EBEA" transform="translate(153,91)" />
    <path
        d="M0 0 C1.32 0.66 2.64 1.32 4 2 C3.67 3.32 3.34 4.64 3 6 C2.34 6 1.68 6 1 6 C1 6.66 1 7.32 1 8 C1.66 8 2.32 8 3 8 C2.67 8.66 2.34 9.32 2 10 C1.34 10 0.68 10 0 10 C-1.125 3.375 -1.125 3.375 0 0 Z "
        fill="#222624" transform="translate(131,44)" />
    <path
        d="M0 0 C0.66 0 1.32 0 2 0 C1.48964169 4.3890815 0.47785723 7.33708062 -2 11 C-2.33 10.01 -2.66 9.02 -3 8 C-3.66 7.67 -4.32 7.34 -5 7 C-4.0409375 6.1028125 -4.0409375 6.1028125 -3.0625 5.1875 C-0.79689611 3.09189663 -0.79689611 3.09189663 0 0 Z "
        fill="#060A07" transform="translate(156,94)" />
    <path
        d="M0 0 C2.0625 0.4375 2.0625 0.4375 4 1 C3.67 2.98 3.34 4.96 3 7 C2.34 7 1.68 7 1 7 C0.67 7.66 0.34 8.32 0 9 C-1.36623674 6.26752652 -1.128426 4.01801098 -1 1 C-0.67 0.67 -0.34 0.34 0 0 Z "
        fill="#F3F5F5" transform="translate(76,82)" />
    <path
        d="M0 0 C0.33 0.66 0.66 1.32 1 2 C1.66 2 2.32 2 3 2 C3 2.66 3 3.32 3 4 C2.01 4.495 2.01 4.495 1 5 C1 5.99 1 6.98 1 8 C0.01 8 -0.98 8 -2 8 C-2.33 8.99 -2.66 9.98 -3 11 C-3.75 9.4375 -3.75 9.4375 -4 7 C-2.86915563 4.49713591 -1.47860484 2.32992278 0 0 Z "
        fill="#181E1B" transform="translate(48,64)" />
    <path
        d="M0 0 C-0.33 0.99 -0.66 1.98 -1 3 C-1.0745356 4.2236068 -1.0745356 4.2236068 0 6 C-1.32 6.33 -2.64 6.66 -4 7 C-4.66 5.68 -5.32 4.36 -6 3 C-6.99 3.495 -6.99 3.495 -8 4 C-7.67 3.01 -7.34 2.02 -7 1 C-4.52260646 0.09162237 -2.66420516 0 0 0 Z "
        fill="#080D0A" transform="translate(89,46)" />
    <path
        d="M0 0 C0.99 0.66 1.98 1.32 3 2 C2.38461538 7.53846154 2.38461538 7.53846154 0.4375 9.875 C-0.036875 10.24625 -0.51125 10.6175 -1 11 C-2.23595506 6.5505618 -2.23595506 6.5505618 -1.0625 3.8125 C-0.5365625 2.9153125 -0.5365625 2.9153125 0 2 C0 1.34 0 0.68 0 0 Z "
        fill="#141816" transform="translate(98,121)" />
    <path
        d="M0 0 C1.98567708 0.09765625 3.97135417 0.1953125 5.95703125 0.29296875 C6.28703125 1.28296875 6.61703125 2.27296875 6.95703125 3.29296875 C2.99703125 3.29296875 -0.96296875 3.29296875 -5.04296875 3.29296875 C-2.04296875 0.29296875 -2.04296875 0.29296875 0 0 Z "
        fill="#18201D" transform="translate(121.04296875,178.70703125)" />
    <path
        d="M0 0 C2 3 2 3 3 5 C3.66 5.66 4.32 6.32 5 7 C3.0085944 7.38133299 1.00720923 7.71325582 -1 8 C-2 7 -2 7 -2.1875 4.5625 C-2 2 -2 2 0 0 Z "
        fill="#F0F4F3" transform="translate(172,141)" />
    <path
        d="M0 0 C1.875 0.125 1.875 0.125 4 1 C5.25 4.0625 5.25 4.0625 6 7 C6.66 7 7.32 7 8 7 C7.67 7.99 7.34 8.98 7 10 C3.60582235 6.87378374 1.3937282 4.43458973 0 0 Z "
        fill="#171D1A" transform="translate(46,114)" />
    <path
        d="M0 0 C0.66 0 1.32 0 2 0 C2.144375 0.969375 2.28875 1.93875 2.4375 2.9375 C2.67562341 5.86486773 2.67562341 5.86486773 4 7 C4.33 7.66 4.66 8.32 5 9 C4.01 9.33 3.02 9.66 2 10 C-0.58787727 7.41212273 -0.62709152 5.57992139 -1 2 C-0.67 1.34 -0.34 0.68 0 0 Z "
        fill="#232C27" transform="translate(74,105)" />
    <path
        d="M0 0 C2.9375 1.25 2.9375 1.25 6 3 C6.875 5.1875 6.875 5.1875 7 7 C5.02 6.34 3.04 5.68 1 5 C0.67 3.35 0.34 1.7 0 0 Z "
        fill="#DEE5E1" transform="translate(85,64)" />
    <path
        d="M0 0 C0.66 0.99 1.32 1.98 2 3 C1.67 3.99 1.34 4.98 1 6 C-1.0625 6.6875 -1.0625 6.6875 -3 7 C-3.33 5.68 -3.66 4.36 -4 3 C-2.68 2.01 -1.36 1.02 0 0 Z "
        fill="#151C18" transform="translate(60,94)" />
    <path
        d="M0 0 C-0.66 1.98 -1.32 3.96 -2 6 C-3.65 6 -5.3 6 -7 6 C-5.52522876 2.59668175 -4.14385429 0 0 0 Z "
        fill="#E4E9E5" transform="translate(142,64)" />
    <path
        d="M0 0 C0.99 0 1.98 0 3 0 C3.33 1.32 3.66 2.64 4 4 C3.01 4 2.02 4 1 4 C0.67 4.99 0.34 5.98 0 7 C-0.66 7 -1.32 7 -2 7 C-2.125 4.625 -2.125 4.625 -2 2 C-1.34 1.34 -0.68 0.68 0 0 Z "
        fill="#151B17" transform="translate(150,102)" />
    <path
        d="M0 0 C0 3.58912412 -0.66436554 4.10857029 -3 6.6875 C-3.556875 7.31011719 -4.11375 7.93273437 -4.6875 8.57421875 C-5.120625 9.04472656 -5.55375 9.51523438 -6 10 C-6.66 9.67 -7.32 9.34 -8 9 C-6.4169423 4.7257442 -3.49431596 2.73468206 0 0 Z "
        fill="#DCE1DE" transform="translate(152,98)" />
    <path
        d="M0 0 C1.32 0.66 2.64 1.32 4 2 C3.67 2.99 3.34 3.98 3 5 C1.0625 5.8125 1.0625 5.8125 -1 6 C-1.66 5.34 -2.32 4.68 -3 4 C-2.01 2.68 -1.02 1.36 0 0 Z "
        fill="#121715" transform="translate(100,75)" />
    <path
        d="M0 0 C4.62 0 9.24 0 14 0 C14 0.33 14 0.66 14 1 C9.71 1.66 5.42 2.32 1 3 C0.67 2.01 0.34 1.02 0 0 Z "
        fill="#0B100E" transform="translate(130,139)" />
    <path
        d="M0 0 C0.66 0 1.32 0 2 0 C1.67 2.64 1.34 5.28 1 8 C0.01 7.67 -0.98 7.34 -2 7 C-2.125 4.625 -2.125 4.625 -2 2 C-1.34 1.34 -0.68 0.68 0 0 Z "
        fill="#1B1E1D" transform="translate(45,166)" />
    <path
        d="M0 0 C2 1.3125 2 1.3125 4 3 C4 3.99 4 4.98 4 6 C3.01 6.33 2.02 6.66 1 7 C0.34 6.67 -0.32 6.34 -1 6 C-0.67 4.02 -0.34 2.04 0 0 Z "
        fill="#EEF1EF" transform="translate(96,152)" />
    <path
        d="M0 0 C0.33 1.32 0.66 2.64 1 4 C0.34 4 -0.32 4 -1 4 C-1.33 5.65 -1.66 7.3 -2 9 C-3.32 9.33 -4.64 9.66 -6 10 C-4.34832443 6.4213696 -2.21713508 3.25179812 0 0 Z "
        fill="#E3E5E3" transform="translate(177,119)" />
    <path
        d="M0 0 C0.99 0.33 1.98 0.66 3 1 C1.02 3.31 -0.96 5.62 -3 8 C-3.66 7.67 -4.32 7.34 -5 7 C-3.35 4.69 -1.7 2.38 0 0 Z "
        fill="#D6DCD8" transform="translate(153,106)" />
    <path
        d="M0 0 C0.99 0.33 1.98 0.66 3 1 C3 2.32 3 3.64 3 5 C2.01 5.33 1.02 5.66 0 6 C-0.66 5.67 -1.32 5.34 -2 5 C-2 3 -2 3 0 1 C0 0.67 0 0.34 0 0 Z M-2 6 C-1.34 6 -0.68 6 0 6 C-0.33 6.66 -0.66 7.32 -1 8 C-1.33 7.34 -1.66 6.68 -2 6 Z "
        fill="#070F0A" transform="translate(89,58)" />
    <path
        d="M0 0 C2.97 0.495 2.97 0.495 6 1 C5.67 1.99 5.34 2.98 5 4 C3.02 4 1.04 4 -1 4 C-0.67 2.68 -0.34 1.36 0 0 Z "
        fill="#0B0F0D" transform="translate(146,45)" />
    <path
        d="M0 0 C1.32 0 2.64 0 4 0 C4.33 0.99 4.66 1.98 5 3 C3.68 3.99 2.36 4.98 1 6 C0.34 4.35 -0.32 2.7 -1 1 C-0.67 0.67 -0.34 0.34 0 0 Z "
        fill="#DCE0DE" transform="translate(136,45)" />
    <path
        d="M0 0 C3.92300495 2.35380297 4.83857315 4.64464931 6 9 C2.70851757 7.86500606 2.0040131 7.00716624 0.25 3.875 C-0.1625 2.92625 -0.575 1.9775 -1 1 C-0.67 0.67 -0.34 0.34 0 0 Z "
        fill="#111613" transform="translate(69,101)" />
    <path
        d="M0 0 C0.99 0.33 1.98 0.66 3 1 C2.74438677 3.3431213 2.40729228 5.67843403 2 8 C1.01 8.495 1.01 8.495 0 9 C-0.84454356 5.62182575 -1.10844919 3.32534757 0 0 Z "
        fill="#121917" transform="translate(64,86)" />
    <path
        d="M0 0 C1.32 0.33 2.64 0.66 4 1 C2.35 2.65 0.7 4.3 -1 6 C-1.33 5.01 -1.66 4.02 -2 3 C-1.34 2.01 -0.68 1.02 0 0 Z "
        fill="#1B1F1C" transform="translate(149,77)" />
    <path
        d="M0 0 C0.33 1.32 0.66 2.64 1 4 C2.98 4.495 2.98 4.495 5 5 C4.67 5.99 4.34 6.98 4 8 C2.68 7.67 1.36 7.34 0 7 C0 4.69 0 2.38 0 0 Z "
        fill="#DADCDB" transform="translate(96,62)" />
    <path
        d="M0 0 C3.125 0.375 3.125 0.375 6 1 C4.35 2.32 2.7 3.64 1 5 C0.01 4.01 -0.98 3.02 -2 2 C-1.34 1.34 -0.68 0.68 0 0 Z "
        fill="#F0F4F3" transform="translate(107,173)" />
    <path
        d="M0 0 C-1.32 0.99 -2.64 1.98 -4 3 C-4.33 2.67 -4.66 2.34 -5 2 C-6.51469448 1.76807135 -8.03754562 1.58784762 -9.5625 1.4375 C-10.38878906 1.35371094 -11.21507812 1.26992187 -12.06640625 1.18359375 C-12.70449219 1.12300781 -13.34257813 1.06242188 -14 1 C-14 0.67 -14 0.34 -14 0 C-12.04235617 -0.19456705 -10.08384679 -0.38044247 -8.125 -0.5625 C-6.48917969 -0.71912109 -6.48917969 -0.71912109 -4.8203125 -0.87890625 C-2 -1 -2 -1 0 0 Z "
        fill="#363B38" transform="translate(70,157)" />
    <path
        d="M0 0 C0.66 0.66 1.32 1.32 2 2 C2.66 2 3.32 2 4 2 C3.67 3.65 3.34 5.3 3 7 C2.01 7.33 1.02 7.66 0 8 C-1.09658936 4.71023192 -0.79953138 3.28696233 0 0 Z "
        fill="#121814" transform="translate(74,71)" />
    <path
        d="M0 0 C3 0 3 0 5 1 C3.71937515 2.7074998 2.38232443 4.37373596 1 6 C0.34 6 -0.32 6 -1 6 C-0.67 4.02 -0.34 2.04 0 0 Z "
        fill="#050D08" transform="translate(74,55)" />
    <path
        d="M0 0 C1.98 0.66 3.96 1.32 6 2 C5.67 2.99 5.34 3.98 5 5 C2.69 4.34 0.38 3.68 -2 3 C-1.34 2.67 -0.68 2.34 0 2 C0 1.34 0 0.68 0 0 Z "
        fill="#E1E5E3" transform="translate(158,53)" />
    <path
        d="M0 0 C1.22589844 0.15275391 1.22589844 0.15275391 2.4765625 0.30859375 C3.41628906 0.43427734 3.41628906 0.43427734 4.375 0.5625 C4.375 0.8925 4.375 1.2225 4.375 1.5625 C2.91864629 1.78424933 1.45977044 1.98948698 0 2.1875 C-0.81210938 2.30351562 -1.62421875 2.41953125 -2.4609375 2.5390625 C-3.17507812 2.54679688 -3.88921875 2.55453125 -4.625 2.5625 C-5.285 1.9025 -5.945 1.2425 -6.625 0.5625 C-4.10446405 -0.69776798 -2.7707902 -0.35624445 0 0 Z "
        fill="#EDF1EE" transform="translate(82.625,169.4375)" />
    <path
        d="M0 0 C1.32 0.33 2.64 0.66 4 1 C4.625 2.875 4.625 2.875 5 5 C4.34 5.66 3.68 6.32 3 7 C0 2.25 0 2.25 0 0 Z "
        fill="#121816" transform="translate(122,87)" />
    <path
        d="M0 0 C0.99 0.99 1.98 1.98 3 3 C2.01 3.99 1.02 4.98 0 6 C0 5.34 0 4.68 0 4 C-0.99 4 -1.98 4 -3 4 C-3.33 4.66 -3.66 5.32 -4 6 C-4 5.01 -4 4.02 -4 3 C-2.68 2.67 -1.36 2.34 0 2 C0 1.34 0 0.68 0 0 Z "
        fill="#040906" transform="translate(103,78)" />
    <path
        d="M0 0 C2.31 0 4.62 0 7 0 C6.67 1.32 6.34 2.64 6 4 C4.68 3.67 3.36 3.34 2 3 C2 2.34 2 1.68 2 1 C1.34 0.67 0.68 0.34 0 0 Z "
        fill="#131716" transform="translate(184,148)" />
    <path
        d="M0 0 C0.99 0.33 1.98 0.66 3 1 C2.67 2.65 2.34 4.3 2 6 C0.68 5.34 -0.64 4.68 -2 4 C-1.34 2.68 -0.68 1.36 0 0 Z "
        fill="#222423" transform="translate(137,104)" />
    <path
        d="M0 0 C0.66 0.33 1.32 0.66 2 1 C1.67 2.98 1.34 4.96 1 7 C0.01 7 -0.98 7 -2 7 C-1.42415568 4.61435923 -0.77772405 2.33317216 0 0 Z "
        fill="#EFF3F0" transform="translate(161,92)" />
    <path
        d="M0 0 C0.33 0.66 0.66 1.32 1 2 C0.67 2.66 0.34 3.32 0 4 C0.66 4.66 1.32 5.32 2 6 C0.35 6.33 -1.3 6.66 -3 7 C-3 5.68 -3 4.36 -3 3 C-2.34 3 -1.68 3 -1 3 C-0.67 2.01 -0.34 1.02 0 0 Z "
        fill="#080C0B" transform="translate(101,85)" />
    <path
        d="M0 0 C0.33 0.99 0.66 1.98 1 3 C0.34 3 -0.32 3 -1 3 C-0.67 2.01 -0.34 1.02 0 0 Z M-5 1 C-4.01 1 -3.02 1 -2 1 C-1.67 2.32 -1.34 3.64 -1 5 C-2.32 5 -3.64 5 -5 5 C-5 3.68 -5 2.36 -5 1 Z "
        fill="#4A514E" transform="translate(105,81)" />
    <path
        d="M0 0 C0 0.99 0 1.98 0 3 C-1.98 3.99 -1.98 3.99 -4 5 C-4.66 4.34 -5.32 3.68 -6 3 C-3.375 0 -3.375 0 0 0 Z "
        fill="#151C17" transform="translate(83,48)" />
</svg>